# xmcd CD database file
#
# Track frame offsets:
#	150
#	20354
#	44396
#	64647
#	90017
#	107017
#	127726
#	146462
#	167610
#	185075
#	206035
#	224137
#
# Disc length: 3204 seconds
#
# Revision: 6
# Processed by: cddbd v1.5.2PL0 Copyright (c) Steve Scherf et al.
# Submitted via: CDex 1.70beta2
#
DISCID=a30c820c
DTITLE=Kevin Costner and Modern West - Untold Truths
DYEAR=2008
DGENRE=Country
TTITLE0=Kevin Costner and Modern West - Long Hot Night
TTITLE1=Kevin Costner and Modern West - 90 Miles an Hour
TTITLE2=Kevin Costner and Modern West - Hey Man What About You
TTITLE3=Kevin Costner and Modern West - Superman 14
TTITLE4=Kevin Costner and Modern West - Don't Lock 'em Away (Song for
TTITLE5=Kevin Costner and Modern West - Down in Nogales
TTITLE6=Kevin Costner and Modern West - Every Intention
TTITLE7=Kevin Costner and Modern West - Five Minutes From America
TTITLE8=Kevin Costner and Modern West - The Sun Will Rise Again
TTITLE9=Kevin Costner and Modern West - Backyard
TTITLE10=Kevin Costner and Modern West - Leland Iowa
TTITLE11=Kevin Costner and Modern West - Gotta Get Away (Song for Bud)
EXTD=YEAR: 2008
EXTT0=
EXTT1=
EXTT2=
EXTT3=
EXTT4=
EXTT5=
EXTT6=
EXTT7=
EXTT8=
EXTT9=
EXTT10=
EXTT11=
PLAYORDER=
